<svg id="Layer_1" data-name="Layer 1" xmlns="http://www.w3.org/2000/svg" width="145" height="173" viewBox="0 0 145 173"><defs><style>.cls-1{fill:#fff;stroke:#141414;stroke-miterlimit:10;stroke-width:2px;}.cls-2{opacity:0.46;}</style></defs><title>interrogacion</title><rect class="cls-1" x="1" y="1" width="143" height="171" rx="12.5313"/><g class="cls-2"><path d="M43.3809,59.9666c2.1509-15.3684,13.4979-26.86,31.8823-26.86C94.08,33.107,106,46.0361,106,62.6982,106,80.5058,93.219,90.2708,78.5676,92.57V107.798H66.071V82.8049c14.7956,0,27.865-4.4539,27.865-19.9665,0-10.77-7.47-18.24-18.813-18.24-11.4952,0-17.5272,6.7529-19.25,15.3684Zm22.69,72.6764V119.43H78.5676V132.643Z"/></g><path d="M41.3809,56.9666c2.1509-15.3684,13.4979-26.86,31.8823-26.86C92.08,30.107,104,43.0361,104,59.6982,104,77.5058,91.219,87.2708,76.5676,89.57V104.798H64.071V79.8049c14.7956,0,27.865-4.4539,27.865-19.9665,0-10.77-7.47-18.24-18.813-18.24-11.4952,0-17.5272,6.7529-19.25,15.3684Zm22.69,72.6764V116.43H76.5676V129.643Z"/></svg>