<svg id="Layer_1" data-name="Layer 1" xmlns="http://www.w3.org/2000/svg" width="438" height="171" viewBox="0 0 438 171"><defs><style>.cls-1{opacity:0.46;}.cls-2{fill:#363331;}.cls-3{fill:#fdfdfd;}.cls-4{fill:#eee;}.cls-5{fill:#fafafa;}</style></defs><title>Artboard 5</title><path class="cls-1" d="M186,76.6c2.4423,3.6117.8084,6.0972-2.1762,8.3485a54.8346,54.8346,0,0,0-4.1277,3.7934C178.2151,83.99,180.6123,79.3727,186,76.6Z"/><path class="cls-1" d="M336.562,49.7753l5.0405,2.3781a18.2781,18.2781,0,0,1-4.1612,4.1506A5.5323,5.5323,0,0,1,336.562,49.7753Z"/><path class="cls-2" d="M171.7211,105.11c-1.3765-7.4221,3.448-11.823,7.975-16.3688a54.8346,54.8346,0,0,1,4.1277-3.7934c2.9846-2.2513,4.6185-4.7368,2.1762-8.3485V70.2444c-4.95,1.6413-9.8042,3.0992-14.5452,4.8621-5.6649,2.1064-10.7882.0142-15.1626-2.7775-4.3861-2.7993-1.95-8.1033-2.1278-12.3008-.12-2.8359,2.2307-4.1125,4.8138-4.9474,8.1167-2.6235,16.162-5.47,24.2946-8.0411,2.1526-.6806,3.2637-1.5726,2.9257-3.93-.6145-4.287,1.246-7.4636,4.342-10.3215,4.1832-3.8613,8.1236-7.9885,12.1138-12.055a8.7664,8.7664,0,0,1,6.67-2.7913c4.7473.0509,9.4976-.0725,14.2425.0457a6.9186,6.9186,0,0,0,5.672-2.2978c3-3.2041,6.2074-6.2129,9.2784-9.352a8.1568,8.1568,0,0,1,6.3587-2.6533c.1185.004.2374-.0034.356-.0021,14.8043.1608,10.6795-1.4919,20.7273,8.3387,3.7329,3.6521,7.3214,7.4544,11.1126,11.0436a9.8734,9.8734,0,0,1,3.3585,8.23,59.0238,59.0238,0,0,0-.0014,6.7628,9.9076,9.9076,0,0,1-2.3427,7.2376c-4.3072,4.2379-8.5581,8.5354-12.9484,12.6855-1.8479,1.7467-2.9543,3.5768-2.6875,6.2126a7.6757,7.6757,0,0,1-2.64,6.3428Q245.8178,84.49,231.8756,98.4937a6.7761,6.7761,0,0,1-7.7629,1.78c-5.0275-1.7789-10.1632-3.2611-15.1489-5.1445-2.5518-.9639-4.2558-.7547-6.2094,1.3561-4.43,4.7871-9.2,9.259-13.781,13.9087-2.2278,2.2612-4.6871,3.0658-7.7289,1.8243a39.7667,39.7667,0,0,0-4.3884-1.4485C173.933,109.9579,172.1285,108.18,171.7211,105.11Zm55.73-7.8254a1.7885,1.7885,0,0,0,1.5472-.6955q14.3475-14.3329,28.7-28.6615a5.8993,5.8993,0,0,0,1.4918-4.5807q-.0363-4.9809.0125-9.9623c.0059-.6786-.0456-1.5954.9175-1.6249.9937-.0305.8447.8954.9657,1.5641.1918,1.06-.4793,2.2833.7643,3.5881,2.9059-3.0174,5.3577-6.3767,8.5568-8.7126,6.2983-4.5989,7.5321-10.7009,6.7023-17.8062a6.3252,6.3252,0,0,0-1.671-4.1681c-2.814-2.709-5.606-5.4407-8.407-8.1632-2.73-2.8055-5.4386-5.6315-8.1948-8.4107-2.7458-2.7687-13.7565-4.3832-16.6466-1.8835-3.9614,3.4262-7.3636,7.4989-11.3034,11.605a8.7253,8.7253,0,0,1,1.6013.0147c1.1405.261,3.2343-.7568,3.2095.956-.0232,1.6061-2.121.8581-3.2758.87-7.2438.0754-14.49.1075-21.7329-.0017a7.8367,7.8367,0,0,0-6.32,2.52c-4.0056,4.2185-8.2176,8.24-12.2994,12.3876a19.4124,19.4124,0,0,0-2.4029,3.0572,6.4426,6.4426,0,0,0-.29,6.381c.7442,1.3756,3.0041-.1551,4.5086-.6182,3.7343-1.1494,7.3922-2.5459,11.1222-3.7105,4.2466-1.3258,9.2078-1.8922,7.6065-8.457a1.03,1.03,0,0,1,.9371-1.279c.6522-.0619.9028.4762,1.0666,1.1293,1.2062,4.8086-.284,7.515-5.1715,9.153Q186.2469,49.55,163.0382,57.2943c-6.5315,2.1784-5.5558,1.023-5.5757,7.7632-.0046,1.5837-.88,3.91.7964,4.6272,3.6125,1.5451,7.23,3.8689,11.5072,2.4255,7.0568-2.3815,14.0882-4.8387,21.1512-7.2017,5.043-1.6872,10.1194-3.2745,15.1824-4.9014,1.45-.466,2.9391-.5356,3.8674.8377,1.0234,1.514-.0944,2.6668-1.0787,3.7279-.565.6091-1.17,1.1812-1.7578,1.769q-14.84,14.839-29.6763,29.6824c-1.8106,1.8138-2.9722,8.5653-1.8259,10.3022.8374,1.2689,7.834,3.0179,9.8068,2.4514.8866-.7588,1.83-1.4608,2.6511-2.2849C198.2019,96.34,208.2841,86.1538,218.4389,76.04c.6374-.6348,1.2167-2.82,2.7976-.8391-2.6319,2.7121-5.239,5.4489-7.9055,8.1266-1.5057,1.512-2.7856,2.64.7583,3.0923,1.9536.25,3.7642,1.4756,5.7081,2.0119.8085.2231,1.438.371,1.2256,1.2238-.2456.9867-1.1338.5753-1.7586.4359a24.2869,24.2869,0,0,1-2.3353-.7581c-1.9915-.6629-3.9528-1.4475-5.9835-1.9533-1.9943-.4966-2.9438,1.1984-3.9385,2.4379-.6171.769.192,1.3264.8764,1.5158C214.4565,93.1531,220.6543,96.2063,227.451,97.2848ZM208.428,62.28l-.4847-.8486q-6.8307,2.2491-13.662,4.4966c-4.4451,1.4555-7.04,6.8769-5.1291,11.0989.653,1.4429,2.1619,2.6873,3.5175.94,2.49-3.21,7.1242-4.6881,7.6788-9.4579.0627-.5389.5581-.6181,1.0579-.6805C204.9824,67.3819,206.046,64.0865,208.428,62.28Z"/><path class="cls-1" d="M171.7211,105.11c.4074,3.07,2.2119,4.8477,5.135,5.66a39.7667,39.7667,0,0,1,4.3884,1.4485c3.0418,1.2415,5.5011.4369,7.7289-1.8243,4.5811-4.65,9.3505-9.1216,13.781-13.9087,1.9536-2.1108,3.6576-2.32,6.2094-1.3561,4.9857,1.8834,10.1214,3.3656,15.1489,5.1445a6.7761,6.7761,0,0,0,7.7629-1.78q13.9179-14.028,27.9345-27.9581a7.6757,7.6757,0,0,0,2.64-6.3428c-.2668-2.6358.84-4.4659,2.6875-6.2126,4.39-4.15,8.6412-8.4476,12.9484-12.6855,5.1879,6.4832,4.9675,10.2967-.9458,16.21C262.5517,76.0943,247.8978,90.62,233.4216,105.32c-3.0765,3.1242-6.2165,4.3782-10.1133,2.2989-4.8051-2.564-8.1153-1.16-11.61,2.7479-5.5246,6.1773-11.643,11.824-17.5171,17.6882a10.77,10.77,0,0,1-15.6423-.6068,8.9793,8.9793,0,0,0-4.9924-3.036c-5.6241-1.5189-6.6182-2.9114-6.7165-8.6491C166.7551,111.381,166.6241,107.0732,171.7211,105.11Z"/><path class="cls-3" d="M185.4352,108.7777c-1.9728.5665-8.9694-1.1825-9.8068-2.4514-1.1463-1.7369.0153-8.4884,1.8259-10.3022q14.8263-14.853,29.6763-29.6824c.5879-.5878,1.1928-1.16,1.7578-1.769.9843-1.0611,2.1021-2.2139,1.0787-3.7279-.9283-1.3733-2.4172-1.3037-3.8674-.8377-5.063,1.6269-10.1394,3.2142-15.1824,4.9014-7.063,2.363-14.0944,4.82-21.1512,7.2017-4.2772,1.4434-7.8947-.88-11.5072-2.4255-1.6762-.7169-.801-3.0435-.7964-4.6272.02-6.74-.9558-5.5848,5.5757-7.7632q23.21-7.7409,46.4071-15.5192c4.8875-1.638,6.3777-4.3444,5.1715-9.153-.1638-.6531-.4144-1.1912-1.0666-1.1293a1.03,1.03,0,0,0-.9371,1.279c1.6013,6.5648-3.36,7.1312-7.6065,8.457-3.73,1.1646-7.3879,2.5611-11.1222,3.7105-1.5045.4631-3.7644,1.9938-4.5086.6182a6.4426,6.4426,0,0,1,.29-6.381,19.4124,19.4124,0,0,1,2.4029-3.0572c4.0818-4.1473,8.2938-8.1691,12.2994-12.3876a7.8367,7.8367,0,0,1,6.32-2.52c7.243.1092,14.4891.0771,21.7329.0017,1.1548-.012,3.2526.736,3.2758-.87.0248-1.7128-2.069-.695-3.2095-.956a8.7253,8.7253,0,0,0-1.6013-.0147c3.94-4.1061,7.342-8.1788,11.3034-11.605,2.89-2.5,13.9008-.8852,16.6466,1.8835,2.7562,2.7792,5.4651,5.6052,8.1948,8.4107-2.011.1355-3.05,1.7159-4.2864,2.9514-24.7835,24.7611-49.4627,49.6278-74.4115,74.2209C184.035,99.4708,184.0926,103.7742,185.4352,108.7777Z"/><path class="cls-4" d="M185.4352,108.7777c-1.3426-5.0035-1.4-9.3069,2.8975-13.5434,24.9488-24.5931,49.628-49.46,74.4115-74.2209,1.2367-1.2355,2.2754-2.8159,4.2864-2.9514,2.801,2.7225,5.593,5.4542,8.407,8.1632a6.3252,6.3252,0,0,1,1.671,4.1681c.83,7.1053-.404,13.2073-6.7023,17.8062-3.1991,2.3359-5.6509,5.6952-8.5568,8.7126-1.2436-1.3048-.5725-2.5281-.7643-3.5881-.121-.6687.028-1.5946-.9657-1.5641-.9631.0295-.9116.9463-.9175,1.6249q-.043,4.9809-.0125,9.9623a5.8993,5.8993,0,0,1-1.4918,4.5807Q243.3364,82.247,228.9982,96.5893a1.7885,1.7885,0,0,1-1.5472.6955q.0022-6.7173.0042-13.4347c.0005-6.3842,0-6.3842-6.2187-8.6488-1.5809-1.9805-2.16.2043-2.7976.8391-10.1548,10.1134-20.237,20.3-30.3526,30.4524C187.2653,107.3169,186.3218,108.0189,185.4352,108.7777Z"/><path class="cls-5" d="M221.2365,75.2013c6.2186,2.2646,6.2192,2.2646,6.2187,8.6488q-.0006,6.7175-.0042,13.4347c-6.7967-1.0785-12.9945-4.1317-19.5675-5.9507-.6844-.1894-1.4935-.7468-.8764-1.5158.9947-1.2395,1.9442-2.9345,3.9385-2.4379,2.0307.5058,3.992,1.29,5.9835,1.9533a24.2869,24.2869,0,0,0,2.3353.7581c.6248.1394,1.513.5508,1.7586-.4359.2124-.8528-.4171-1.0007-1.2256-1.2238-1.9439-.5363-3.7545-1.7624-5.7081-2.0119-3.5439-.4527-2.264-1.58-.7583-3.0923C215.9975,80.65,218.6046,77.9134,221.2365,75.2013Z"/><path class="cls-5" d="M208.428,62.28c-2.382,1.8064-3.4456,5.1018-7.0216,5.5485-.5.0624-.9952.1416-1.0579.6805-.5546,4.77-5.1888,6.2483-7.6788,9.4579-1.3556,1.7473-2.8645.5029-3.5175-.94-1.9106-4.222.684-9.6434,5.1291-11.0989q6.8345-2.238,13.662-4.4966Z"/><path class="cls-4" d="M316.9724,102.6962c-1.8206-3.1458-1.6378-6.3166.6673-8.6494,5.58-5.6472,11.1594-11.2976,16.8535-16.8288,2.5449-2.4722,5.9639-3.1722,9.3409-3.7949-6.4025,6.4931-12.7043,13.09-19.2523,19.4331A45.7272,45.7272,0,0,0,316.9724,102.6962Z"/><path class="cls-2" d="M304.8194,103.8441a13.0646,13.0646,0,0,1,1.5788-16.2067q15.5183-15.67,31.0431-31.3334a18.2781,18.2781,0,0,0,4.1612-4.1506l-5.0405-2.3781a13.2644,13.2644,0,0,1,2.1935-15.9441c4.1033-4.12,8.296-8.1543,12.3038-12.3649a9.9955,9.9955,0,0,1,7.9122-3.2536c7.4746.1111,14.9545-.0785,22.4268.0938,2.8618.066,5.1248-.6342,6.8107-2.936,3.6081-4.926,7.8719-5.7185,13.64-3.44,8.58,3.39,17.4718,6.0012,26.2615,8.8493,3.2563,1.0552,4.9858,3.01,4.7493,6.5245-.2923,4.3462.723,8.783-.9087,13.0363-4.1832,4.2024-8.1917,8.6-12.6073,12.5427-3.2671,2.9168-5.1516,6.0539-4.3762,10.4866l-.828,1.9406q-21.4757,21.5043-42.9528,43.007c-4.3654,4.3687-7.6849,4.7389-12.7848,1.0233-1.3724-1-1.9394-.7453-2.8379.27-.7839.886-1.6613,1.69-2.5014,2.5254a10.071,10.071,0,0,1-15.3437-1.0806c-1.1591-1.5954-1.6043-1.0957-2.5288-.1295-1.5619,1.6324-3.2063,3.743-5.63,3.1782-4.5466-1.06-9.9422-.8277-12.2231-6.3248a1.1645,1.1645,0,0,0-1.3273-.8084C311.9643,107.0669,308.4951,105.084,304.8194,103.8441Zm39.0147-30.421c1.1748-.2829,1.9031-2.7257,3.1078-1.3986,1.1621,1.28-1.0869,1.9477-1.7055,2.96a6.2173,6.2173,0,0,1-.9924,1.0175q-10.9581,10.9643-21.9058,21.9389c-1.6566,1.6684-2.4222,8.6232-1.2165,10.0625,1.2387,1.4784,8.4031,2.8,10.1556,1.8739.786-.7042,1.5194-1.48,2.3668-2.1008,4.7518-3.4793,6.217-9.5006,10.7046-13.3474,5.442-4.6649,10.1824-10.1484,15.2263-15.2777,1.3756-.2727,1.9524-3.322,3.5025-1.6754,1.0684,1.1349-1.2751,2.0835-2.0339,3.1479a15.14,15.14,0,0,1-1.7337,1.7687q-8.3978,8.3922-16.7913,16.7884c-2.0292,2.0366-3.5129,7.6566-2.0834,9.7948,1.6774,2.509,4.6682,2.742,7.5024,2.8337,1.4744-.1627,2.1151-1.4458,2.9974-2.3369,7.3557-7.4284,12.6265-16.72,20.8638-23.37a9.07,9.07,0,0,0,1.1294-1.3352c1.5354-.67,2.056-2.8352,4.0722-2.9692.5491,1.7352-.8686,2.2324-1.6022,2.98-4.4878,4.5736-9.085,9.04-13.573,13.6134-1.9842,2.0219-3.3395,4.7048-2.1886,7.3133.9723,2.2038,3.6091,2.7926,6.1231,2.55,1.5027-.1062,2.128-1.4165,3.0139-2.2988,13.2086-13.1553,26.3257-26.4034,39.6169-39.4745,2.634-2.59,3.9138-5.2337,3.0439-8.83.6853-3.0686-.407-6.26.6443-9.3035,3.182.6407.4658,3.4719,1.8467,4.8538,4.9173-4.8022,9.8617-9.5992,14.7478-14.4549a2.9872,2.9872,0,0,0,.7551-1.9227c.0242-3.7475.5092-7.51-.2477-11.24-.5575-1.7-2.2439-1.59-3.4871-2.0164-8.3911-2.88-16.8967-5.4458-25.2009-8.5522-3.9858-1.4909-6.9337-1.2837-9.49,2.2863-2.414,3.3716-5.7538,4.4034-9.9135,4.24-7.3415-.2892-14.7028-.06-22.0556-.0977a5.9646,5.9646,0,0,0-4.59,1.4583c-4.8648,4.8612-9.808,9.6486-14.5405,14.6358-2.5025,2.6372-2.0912,6.4524-.9072,9.05,1.058,2.3214,4.499,3.1563,7.5408,2.5685l12.8476-12.8617c1.2774-.4226,1.6083-2.3789,3.3063-2.1385.6961,1.1153-.2364,1.583-.7639,2.118q-8.7138,8.8383-17.3159,17.784C332.7509,66.3451,320.5165,78.27,308.45,90.3574c-2.0568,2.06-3.0388,8.9281-1.572,10.562,1.3134,1.4629,8.4807,2.7245,10.0945,1.7768a45.7272,45.7272,0,0,1,7.6094-9.84C331.13,86.5132,337.4316,79.9162,343.8341,73.4231Z"/><path class="cls-1" d="M304.8194,103.8441c3.6757,1.24,7.1449,3.2228,11.1912,3.1278a1.1645,1.1645,0,0,1,1.3273.8084c2.2809,5.4971,7.6765,5.2649,12.2231,6.3248,2.4232.5648,4.0676-1.5458,5.63-3.1782.9245-.9662,1.37-1.4659,2.5288.1295a10.071,10.071,0,0,0,15.3437,1.0806c.84-.8359,1.7175-1.6394,2.5014-2.5254.8985-1.0157,1.4655-1.27,2.8379-.27,5.1,3.7156,8.4194,3.3454,12.7848-1.0233Q392.6689,86.82,414.14,65.3109c1.2429,5.4591-1.5986,9.3206-5.1208,12.8549q-18.0906,18.1524-36.2527,36.2333a36.7448,36.7448,0,0,1-4.9036,4.0879c-3.1644,2.2021-6.0874.4474-8.4037-1.4029-2.0421-1.6314-3.1672-1.4374-4.639.3345-.7549.9088-1.6615,1.6919-2.5029,2.5284-4.8021,4.7746-12.1551,3.214-14.7639-3.1374-.2248.04-.5629.0073-.6561.1426-4.2407,6.16-9.667,5.1226-15.3487,2.55-.3221-.1458-.8046-.2655-.907-.52-2.3163-5.76-8.3259-4.3981-12.547-6.4295C304.0532,110.6078,302.704,107.7011,304.8194,103.8441Z"/><path class="cls-1" d="M414.9679,63.37c-.7754-4.4327,1.1091-7.57,4.3762-10.4866,4.4156-3.9422,8.4241-8.34,12.6073-12.5427.8127,4.6831-.5721,8.3857-4.3085,11.5252-3.4066,2.8625-6.3621,6.2608-9.5317,9.4074C417.2055,62.1727,416.4146,63.2709,414.9679,63.37Z"/><path class="cls-3" d="M346.5369,49.1568c-3.0418.5878-6.4828-.2471-7.5408-2.5685-1.184-2.598-1.5953-6.4132.9072-9.05,4.7325-4.9872,9.6757-9.7746,14.5405-14.6358a5.9646,5.9646,0,0,1,4.59-1.4583c7.3528.0373,14.7141-.1915,22.0556.0977,4.16.1639,7.5-.8679,9.9135-4.2395,2.556-3.57,5.5039-3.7772,9.49-2.2863,8.3042,3.1064,16.81,5.6718,25.2009,8.5522,1.2432.4268,2.93.3159,3.4871,2.0164-1.444.1154-2.2375,1.2125-3.1459,2.1144-3.01,2.9883-5.8235,6.2046-9.0476,8.9382-3.723,3.1567-5.6507,6.8082-4.9084,11.7114-1.0513,3.0432.041,6.2349-.6443,9.3035-2.8755.4485-3.5929,3.2447-5.3024,4.9427-12.2568,12.1742-24.3879,24.4756-36.71,36.5824-2.6689,2.6221-4.1543,5.358-3.6619,9.0782-2.514.243-5.1508-.3458-6.1231-2.55-1.1509-2.6085.2044-5.2914,2.1886-7.3133,4.488-4.5735,9.0852-9.04,13.573-13.6134.7336-.7476,2.1513-1.2448,1.6022-2.98-2.0162.134-2.5368,2.2993-4.0722,2.9692A10.2849,10.2849,0,0,0,363.82,88.39,122.0442,122.0442,0,0,1,353.307,98.8709c-4.09,3.5045-6.2956,7.4954-5.3694,12.9388-2.8342-.0917-5.825-.3247-7.5024-2.8337-1.43-2.1382.0542-7.7582,2.0834-9.7948q8.38-8.41,16.7913-16.7884a15.14,15.14,0,0,0,1.7337-1.7687c.7588-1.0644,3.1023-2.013,2.0339-3.1479-1.55-1.6466-2.1269,1.4027-3.5025,1.6754-3.22.3076-6.4424.9248-8.8126,3.219q-9.5632,9.257-18.8141,18.8337a6.4175,6.4175,0,0,0-.671,8.6732c-1.7525.9265-8.9169-.3955-10.1556-1.8739-1.2057-1.4393-.44-8.3941,1.2165-10.0625q10.9221-11,21.9058-21.9389a6.2173,6.2173,0,0,0,.9924-1.0175c.6186-1.0125,2.8676-1.68,1.7055-2.96-1.2047-1.3271-1.933,1.1157-3.1078,1.3986-3.377.6227-6.796,1.3227-9.3409,3.7949C328.7991,82.7492,323.22,88.4,317.64,94.0468c-2.3051,2.3328-2.4879,5.5036-.6673,8.6494-1.6138.9477-8.7811-.3139-10.0945-1.7768-1.4668-1.6339-.4848-8.5016,1.572-10.562,12.0666-12.0874,24.301-24.0123,36.1611-36.2988q8.62-8.93,17.3159-17.784c.5275-.535,1.46-1.0027.7639-2.118-1.698-.24-2.0289,1.7159-3.3063,2.1385-2.7226-.4563-5.0751.7759-7.5182,1.6263C346.1611,39.9072,344.6271,43.1185,346.5369,49.1568Z"/><path class="cls-4" d="M365.76,108.2551c-.4924-3.72.993-6.4561,3.6619-9.0782,12.3225-12.1068,24.4536-24.4082,36.71-36.5824,1.7095-1.698,2.4269-4.4942,5.3024-4.9427.87,3.5963-.41,6.24-3.0439,8.83-13.2912,13.0711-26.4083,26.3192-39.6169,39.4745C367.8877,106.8386,367.2624,108.1489,365.76,108.2551Z"/><path class="cls-4" d="M412.0787,48.3483c-.7423-4.9032,1.1854-8.5547,4.9084-11.7114,3.2241-2.7336,6.0378-5.95,9.0476-8.9382.9084-.9019,1.7019-1.999,3.1459-2.1144.7569,3.73.2719,7.4927.2477,11.24a2.9872,2.9872,0,0,1-.7551,1.9227c-4.8861,4.8557-9.8305,9.6527-14.7478,14.4549C412.5445,51.82,415.2607,48.989,412.0787,48.3483Z"/><path class="cls-4" d="M331.2773,109.8775a6.4175,6.4175,0,0,1,.671-8.6732q9.2232-9.5949,18.8141-18.8337c2.37-2.2942,5.5924-2.9114,8.8126-3.219-5.0439,5.1293-9.7843,10.6128-15.2263,15.2777-4.4876,3.8468-5.9528,9.8681-10.7046,13.3474C332.7967,108.3971,332.0633,109.1733,331.2773,109.8775Z"/><path class="cls-4" d="M347.9376,111.81c-.9262-5.4434,1.2794-9.4343,5.3694-12.9388A122.0442,122.0442,0,0,0,363.82,88.39a10.2849,10.2849,0,0,1,9.108-3.6216,9.07,9.07,0,0,1-1.1294,1.3352c-8.2373,6.6494-13.5081,15.9412-20.8638,23.37C350.0527,110.3639,349.412,111.647,347.9376,111.81Z"/><path class="cls-4" d="M346.5369,49.1568c-1.91-6.0383-.3758-9.25,5.3294-11.2354,2.4431-.85,4.7956-2.0826,7.5182-1.6263Z"/><path class="cls-2" d="M27.1992,91.4434a36.8259,36.8259,0,0,1-.4761-4.2282c-.0062-2.2755-.0442-4.2251-2.2314-5.9064-2.2-1.691-1.3372-4.6213-1.3706-7.0645A8.7535,8.7535,0,0,0,21.1238,68.25c-1.8823-2.3532-3.4387-4.83-5.7936-6.9258-2.483-2.21-1.5246-10.921,1.1169-13.65,5.034-5.2006,10.2077-10.2661,15.33-15.3815a8.5718,8.5718,0,0,1,6.5135-2.27c8.6631.042,17.3271-.0393,25.9894.0553a6.6785,6.6785,0,0,0,5.3372-2.2053c3.1035-3.2694,6.3683-6.3853,9.5318-9.5988A7.8864,7.8864,0,0,1,85.1976,15.76c.1185.0028.2373-.0046.356-.003,14.8678.1991,10.7142-1.6723,21.0273,8.4569,3.81,3.7419,7.5183,7.5877,11.3511,11.3057A9.571,9.571,0,0,1,121,42.8253a25.1251,25.1251,0,0,0,.0163,3.2021c.6521,5.5228-.5584,10.3506-5.0372,14.0177-3.4732,3.3832-6.888,6.83-10.4443,10.1231a6.8853,6.8853,0,0,0-2.5625,5.9,7.978,7.978,0,0,1-2.5255,6.4041q-14.2209,14.185-28.4038,28.4079a6.1852,6.1852,0,0,1-6.8262,1.6427q-15.4894-5.1766-30.9825-10.3425c-2.3972-.7984-4.0295-2.4922-3.89-4.9329C30.5042,94.4587,29.1668,92.8763,27.1992,91.4434Zm80.36-61.2521c-2.4657-2.5549-4.9093-5.1315-7.4025-7.6593C96.9,19.23,87.3471,17.1,83.3926,19.5176c-4.7782,2.9208-8.0572,7.6242-12.7846,11.9342,1.8533,0,2.5743-.072,3.2742.0185.8482.11,2.3154-.4888,2.34.803.03,1.583-1.559.8911-2.4848,1.0375a11.51,11.51,0,0,1-1.7783.0161q-16.3852-.0006-32.77-.0018c-1.6621,0-3.4227-.1934-4.7238,1.0922-5.32,5.2564-10.7389,10.425-15.819,15.9063-2.703,2.9166-1.2271,9.2146,2.7121,10.3651C18.5567,52.11,25.115,48.3759,29.6858,43.5742c.1635-.1717.3382-.3329.4993-.5069a4.58,4.58,0,0,1,5.1972-1.2527q8.93,2.988,17.85,6.0026c.747.2519,1.9386.3432,1.6238,1.4236-.4268,1.4647-1.5252.5422-2.3384.2746-5.5142-1.8146-11.0193-3.6567-16.531-5.4791-1.4724-.4869-2.9309-1.007-4.3305.2774-5.17,4.7449-10.7433,9.2722-8.787,17.58a3.0325,3.0325,0,0,1,.0034,1.0654c-.3143,2.378.6348,3.61,3.0191,4.3662C35.1509,70.26,44.34,73.413,53.5574,76.4794c2.36.7852,4.7361,1.5255,7.0856,2.3418.6245.217,1.569.4379,1.3476,1.34-.2989,1.2183-1.2911.6414-2.0273.4785a20.7056,20.7056,0,0,1-2.0329-.6461q-13.1485-4.3757-26.2956-8.7561c-5.2035-1.7383-4.9736-1.7369-5.2806,3.803-.1866,3.3677.959,4.9087,4.1627,5.76,4.4569,1.1848,8.7942,2.8232,13.1744,4.2922q8.0853,2.7115,16.1516,5.4787c.9008.3107,2.6405.2652,2.051,1.74-.5439,1.3612-1.8287.1416-2.78-.0576a9.338,9.338,0,0,1-1.0229-.3q-12.813-4.26-25.6277-8.5145c-.7849-.26-1.7-1.1807-2.38.1-1.1064,2.0839.356,6.4629,2.5581,7.4169,6.8877,2.9837,14.1915,4.79,21.2094,7.4,2.7243,1.0132,5.8965,1.2243,8.4815,3.66a5.8608,5.8608,0,0,1-4.0125-.4054C50.8825,99.1235,43.4188,96.7155,35.981,94.23c-1.0084-.3371-2.2275-1.1386-2.8541-.0688a3.1111,3.1111,0,0,0,.5925,3.5873,4.8728,4.8728,0,0,0,2.3064,1.5362q14.8391,4.93,29.6681,9.89c1.7261.576,3.2807.5782,4.2769-1.2818,7.5044-7.4108,14.7056-15.1669,22.6163-22.1151,5.5841-4.9047,8.3117-10.2357,7.2292-17.6238-.1947-1.3287-1.1466-4.0131.9251-4.1283,1.5613-.0868.56,2.5925.9669,3.9773.0539.1835.2644.3208.6217.7317,2.7537-2.7752,5.186-5.9369,8.2784-8.1944,6.3327-4.6229,7.9207-10.7256,7.0042-18.0348a6.394,6.394,0,0,0-1.6409-4.1644Q111.7642,34.2672,107.5587,30.1913Z"/><path class="cls-1" d="M27.1992,91.4434c1.9676,1.4329,3.305,3.0153,3.1455,5.8044-.14,2.4407,1.4926,4.1345,3.89,4.9329q15.4947,5.1606,30.9825,10.3425a6.1852,6.1852,0,0,0,6.8262-1.6427Q86.23,96.6613,100.447,82.4726a7.978,7.978,0,0,0,2.5255-6.4041,6.8853,6.8853,0,0,1,2.5625-5.9c3.5563-3.2936,6.9711-6.74,10.4443-10.1231,4.41.9712,6.132,5.4637,3.7429,10.0243a19.8053,19.8053,0,0,1-3.6561,4.7889Q96.392,94.468,76.7518,114.1118c-1.9259,1.9159-4.0487,3.643-6.1577,5.3625a4.4782,4.4782,0,0,1-4.6487.7009c-12.7675-4.39-25.5811-8.6464-38.358-13.01-2.801-.9565-6.21-1.1856-6.2412-5.5645C21.306,95.9733,22.5688,93.499,27.1992,91.4434Z"/><path class="cls-5" d="M69.9708,107.8927c-.9962,1.86-2.5508,1.8578-4.2769,1.2818q-14.8328-4.9488-29.6681-9.89a4.8728,4.8728,0,0,1-2.3064-1.5362,3.1111,3.1111,0,0,1-.5925-3.5873c.6266-1.07,1.8457-.2683,2.8541.0688,7.4378,2.4857,14.9015,4.8937,22.3386,7.3813a5.8608,5.8608,0,0,0,4.0125.4054c-2.585-2.4362-5.7572-2.6473-8.4815-3.66-7.0179-2.61-14.3217-4.416-21.2094-7.4-2.2021-.954-3.6645-5.333-2.5581-7.4169.68-1.2805,1.595-.3594,2.38-.1q12.8195,4.24,25.6277,8.5145a9.338,9.338,0,0,0,1.0229.3c.9516.1992,2.2364,1.4188,2.78.0576.59-1.475-1.15-1.43-2.051-1.74q-8.0616-2.78-16.1516-5.4787c-4.38-1.469-8.7175-3.1074-13.1744-4.2922-3.2037-.8517-4.3493-2.3927-4.1627-5.76.307-5.54.0771-5.5413,5.2806-3.803Q44.7784,75.6283,57.93,79.9937a20.7056,20.7056,0,0,0,2.0329.6461c.7362.1629,1.7284.74,2.0273-.4785.2214-.9022-.7231-1.1231-1.3476-1.34-2.3495-.8163-4.7252-1.5566-7.0856-2.3418C44.34,73.413,35.1509,70.26,25.8922,67.3252c-2.3843-.7558-3.3334-1.9882-3.0191-4.3662a3.0325,3.0325,0,0,0-.0034-1.0654c-1.9563-8.3077,3.6167-12.835,8.787-17.58,1.4-1.2844,2.8581-.7643,4.3305-.2774,5.5117,1.8224,11.0168,3.6645,16.531,5.4791.8132.2676,1.9116,1.19,2.3384-.2746.3148-1.08-.8768-1.1717-1.6238-1.4236q-8.9229-3.0084-17.85-6.0026a4.58,4.58,0,0,0-5.1972,1.2527c-.1611.174-.3358.3352-.4993.5069C25.115,48.3759,18.5567,52.11,21.3575,60.6887c-3.9392-1.15-5.4151-7.4485-2.7121-10.3651,5.08-5.4813,10.4992-10.65,15.819-15.9063,1.3011-1.2856,3.0617-1.0924,4.7238-1.0922q16.3852.0029,32.77.0018a11.51,11.51,0,0,0,1.7783-.0161c.9258-.1464,2.5144.5455,2.4848-1.0375-.0242-1.2918-1.4914-.6933-2.34-.803-.7-.0905-1.4209-.0185-3.2742-.0185,4.7274-4.31,8.0064-9.0134,12.7846-11.9342C87.3471,17.1,96.9,19.23,100.1562,22.532c2.4932,2.5278,4.9368,5.1044,7.4025,7.6593a21.9458,21.9458,0,0,0-3.1789,2.2206Q87.4816,49.2128,70.6525,66.0835a7.1781,7.1781,0,0,0-2.2172,5.4048c.0422,10.9067.02,21.8137.0174,32.7205C68.4522,105.65,68.3911,107.1069,69.9708,107.8927ZM62.17,49.9383c0-2.7857.052-4.6839-.0241-6.5769-.0332-.8253.4825-2.2318-.977-2.17-1.0114.0426-.7969,1.2729-.801,2.0709-.0168,3.318.097,6.64-.0325,9.9534A8.3936,8.3936,0,0,1,49.6094,60.853q-6.9111-2.2587-13.81-4.5549c-.7719-.2569-1.7126-.8712-2.078.2744-.34,1.0657.7273,1.2328,1.5041,1.4924,5.3826,1.7986,10.7528,3.6346,16.143,5.41,2.0965.6906,3.7767.047,5.5117-1.3947C61.0328,58.63,63.3872,54.6055,62.17,49.9383Z"/><path class="cls-4" d="M69.9708,107.8927c-1.58-.7858-1.5186-2.2428-1.5181-3.6839.0031-10.9068.0248-21.8138-.0174-32.72a7.1781,7.1781,0,0,1,2.2172-5.4048Q87.5236,49.255,104.38,32.4119a21.9458,21.9458,0,0,1,3.1789-2.2206q4.2063,4.0749,8.413,8.15a6.394,6.394,0,0,1,1.6409,4.1644c.9165,7.3092-.6715,13.4119-7.0042,18.0348-3.0924,2.2575-5.5247,5.4192-8.2784,8.1944-.3573-.4109-.5678-.5482-.6217-.7317-.407-1.3848.5944-4.0641-.9669-3.9773-2.0717.1152-1.12,2.8-.9251,4.1283,1.0825,7.3881-1.6451,12.7191-7.2292,17.6238C84.6764,92.7258,77.4752,100.4819,69.9708,107.8927Z"/><path d="M34.7939,157.8047v5.668H32.2715V145.6621h6.6562c3.9,0,6.4219,2.6514,6.4219,6.0576a6.0958,6.0958,0,0,1-6.4219,6.085Zm0-9.8291V155.49h3.9776a3.7666,3.7666,0,1,0,.0527-7.5146Z"/><path d="M47.17,147.95v-2.2881H49.458V147.95Zm0,15.5225V150.3164H49.458v13.1563Z"/><path d="M57.7773,163.7324a6.812,6.812,0,1,1,0-13.624,6.3584,6.3584,0,0,1,6.6827,6.5,7.5109,7.5109,0,0,1-.0782,1.04H53.2529a4.3514,4.3514,0,0,0,4.5762,4.03,4.8159,4.8159,0,0,0,4.3945-2.2881l1.7686,1.0655A6.8658,6.8658,0,0,1,57.7773,163.7324Zm-4.4716-7.9306h8.7881a4.17,4.17,0,0,0-4.3165-3.7178A4.3348,4.3348,0,0,0,53.3057,155.8018Z"/><path d="M65.6289,156.92a6.72,6.72,0,0,1,6.6826-6.7861,6.12,6.12,0,0,1,4.7324,1.9766v-6.4483h2.2618v17.8106H77.0439v-1.794a6.0306,6.0306,0,0,1-4.7324,2.002A6.6977,6.6977,0,0,1,65.6289,156.92Zm2.2363,0a4.6154,4.6154,0,1,0,9.23,0,4.6012,4.6012,0,0,0-4.6543-4.6543A4.5523,4.5523,0,0,0,67.8652,156.92Z"/><path d="M87.5469,152.4736c-2.5742,0-4.1338,1.7168-4.1338,4.3428v6.6563H81.125V150.3164h2.2617V152.5a4.7357,4.7357,0,0,1,4.16-2.3662Z"/><path d="M99.1689,161.6787a5.906,5.906,0,0,1-4.7324,2.002,6.7741,6.7741,0,0,1,0-13.5469,6.2164,6.2164,0,0,1,4.7324,1.95v-1.7676h2.2618v13.1563H99.1689ZM89.99,156.92a4.6154,4.6154,0,1,0,9.23,0,4.6012,4.6012,0,0,0-4.6543-4.6543A4.5523,4.5523,0,0,0,89.99,156.92Z"/><path d="M189.0449,157.8037v5.668h-2.5224V145.6611h6.6562c3.9,0,6.4229,2.6524,6.4229,6.0577a6.0967,6.0967,0,0,1-6.4229,6.0849Zm0-9.8291v7.5147h3.9776a3.7667,3.7667,0,1,0,.0527-7.5147Z"/><path d="M212.2637,161.6777a5.9062,5.9062,0,0,1-4.7324,2.002,6.7741,6.7741,0,0,1,0-13.5469,6.2167,6.2167,0,0,1,4.7324,1.95v-1.7676h2.2617v13.1563h-2.2617ZM203.085,156.92a4.6154,4.6154,0,1,0,9.23,0,4.6006,4.6006,0,0,0-4.6543-4.6543A4.5516,4.5516,0,0,0,203.085,156.92Z"/><path d="M218.6328,152.1094a6.158,6.158,0,0,1,4.7061-1.9766,6.7738,6.7738,0,0,1,0,13.5469,5.9692,5.9692,0,0,1-4.7061-1.9766v6.293h-2.2881V150.3154h2.2881Zm-.0781,4.8105a4.628,4.628,0,1,0,4.68-4.6543A4.5742,4.5742,0,0,0,218.5547,156.92Z"/><path d="M238.0283,163.7314a6.812,6.812,0,1,1,0-13.624,6.3583,6.3583,0,0,1,6.6826,6.5,7.5227,7.5227,0,0,1-.0781,1.04H233.5039a4.3513,4.3513,0,0,0,4.5762,4.03,4.814,4.814,0,0,0,4.3945-2.2881l1.7676,1.0655A6.863,6.863,0,0,1,238.0283,163.7314Zm-4.4717-7.93h8.7881a4.17,4.17,0,0,0-4.3164-3.7188A4.3351,4.3351,0,0,0,233.5566,155.8018Z"/><path d="M246.1924,163.4717V145.6611h2.2881v17.8106Z"/><path d="M344.458,163.4727V147.9746h-5.6162v-2.3125h13.7549v2.3125h-5.6162v15.4981Z"/><path d="M353.7656,147.9492v-2.2871h2.2881v2.2871Zm0,15.5235V150.3164h2.2881v13.1563Z"/><path d="M360.1611,163.3164c0,3.4063-2.0537,4.6543-4.6279,4.6543V165.916c1.3,0,2.34-.6758,2.34-2.625V150.3164h2.2881Zm-2.2881-15.3672v-2.2871h2.2881v2.2871Z"/><path d="M368.4805,163.7324a6.8125,6.8125,0,1,1,0-13.625,6.3584,6.3584,0,0,1,6.6826,6.5,7.5257,7.5257,0,0,1-.0781,1.041H363.9561a4.3511,4.3511,0,0,0,4.5761,4.0293,4.8136,4.8136,0,0,0,4.3946-2.2871l1.7685,1.0645A6.8645,6.8645,0,0,1,368.4805,163.7324Zm-4.4717-7.93h8.7881a4.17,4.17,0,0,0-4.3164-3.7187A4.3342,4.3342,0,0,0,364.0088,155.8027Z"/><path d="M383.0664,152.4746c-2.5742,0-4.1338,1.7149-4.1338,4.3418v6.6563h-2.2881V150.3164h2.2618V152.5a4.7354,4.7354,0,0,1,4.16-2.3672Z"/><path d="M394.6885,161.6777a5.9062,5.9062,0,0,1-4.7324,2.002,6.7741,6.7741,0,0,1,0-13.5469,6.2155,6.2155,0,0,1,4.7324,1.9512v-1.7676H396.95v13.1563h-2.2617ZM385.51,156.92a4.6154,4.6154,0,1,0,9.23,0,4.6012,4.6012,0,0,0-4.6543-4.6543A4.5522,4.5522,0,0,0,385.51,156.92Z"/><path class="cls-2" d="M62.17,49.9383c0-2.7857.052-4.6839-.0241-6.5769-.0332-.8253.4825-2.2318-.977-2.17-1.0114.0426-.7969,1.2729-.801,2.0709-.0168,3.318.097,6.64-.0325,9.9534A8.3936,8.3936,0,0,1,49.6094,60.853q-6.9111-2.2587-13.81-4.5549c-.7719-.2569-1.7126-.8712-2.078.2744-.34,1.0657.7273,1.2328,1.5041,1.4924,5.3826,1.7986,10.7528,3.6346,16.143,5.41,2.0965.6906,3.7767.047,5.5117-1.3947C61.0328,58.63,63.3872,54.6055,62.17,49.9383Z"/></svg>