<svg id="Layer_1" data-name="Layer 1" xmlns="http://www.w3.org/2000/svg" xmlns:xlink="http://www.w3.org/1999/xlink" width="145" height="173" viewBox="0 0 145 173"><defs><style>.cls-1{fill:none;stroke-miterlimit:10;stroke-width:2px;stroke:url(#linear-gradient);}.cls-2{opacity:0.46;}.cls-10,.cls-3,.cls-6,.cls-7,.cls-8,.cls-9{opacity:0.74;}.cls-3{fill:url(#linear-gradient-2);}.cls-4{fill:#363331;}.cls-5{opacity:0.49;fill:url(#linear-gradient-3);}.cls-6{fill:url(#linear-gradient-4);}.cls-7{fill:url(#linear-gradient-5);}.cls-8{fill:url(#linear-gradient-6);}.cls-9{fill:url(#linear-gradient-7);}.cls-10{fill:url(#linear-gradient-8);}</style><linearGradient id="linear-gradient" y1="86.5" x2="145" y2="86.5" gradientUnits="userSpaceOnUse"><stop offset="0" stop-color="#a823cc"/><stop offset="1" stop-color="#f35ba6"/></linearGradient><linearGradient id="linear-gradient-2" x1="20.7425" y1="89.0597" x2="48.8341" y2="89.0597" xlink:href="#linear-gradient"/><linearGradient id="linear-gradient-3" x1="11.1764" y1="63.9761" x2="134.1806" y2="63.9761" xlink:href="#linear-gradient"/><linearGradient id="linear-gradient-4" x1="70.6662" y1="83.9534" x2="116.7054" y2="83.9534" xlink:href="#linear-gradient"/><linearGradient id="linear-gradient-5" x1="116.9215" y1="40.3932" x2="134.6035" y2="40.3932" xlink:href="#linear-gradient"/><linearGradient id="linear-gradient-6" x1="34.9046" y1="95.5146" x2="64.575" y2="95.5146" xlink:href="#linear-gradient"/><linearGradient id="linear-gradient-7" x1="52.728" y1="99.2592" x2="77.9282" y2="99.2592" xlink:href="#linear-gradient"/><linearGradient id="linear-gradient-8" x1="50.7574" y1="43.6768" x2="64.3845" y2="43.6768" xlink:href="#linear-gradient"/></defs><title>papel back</title><path d="M45.0449,158.8037v5.668H42.5225V146.6611h6.6562c3.9,0,6.4229,2.6524,6.4229,6.0577a6.0967,6.0967,0,0,1-6.4229,6.0849Zm0-9.8291v7.5147h3.9776a3.7667,3.7667,0,1,0,.0527-7.5147Z"/><path d="M68.2637,162.6777a5.9062,5.9062,0,0,1-4.7324,2.002,6.7741,6.7741,0,0,1,0-13.5469,6.2167,6.2167,0,0,1,4.7324,1.95v-1.7676h2.2617v13.1563H68.2637ZM59.085,157.92a4.6154,4.6154,0,1,0,9.23,0,4.6006,4.6006,0,0,0-4.6543-4.6543A4.5516,4.5516,0,0,0,59.085,157.92Z"/><path d="M74.6328,153.1094a6.158,6.158,0,0,1,4.7061-1.9766,6.7738,6.7738,0,0,1,0,13.5469,5.9692,5.9692,0,0,1-4.7061-1.9766v6.293H72.3447V151.3154h2.2881Zm-.0781,4.8105a4.628,4.628,0,1,0,4.68-4.6543A4.5742,4.5742,0,0,0,74.5547,157.92Z"/><path d="M94.0283,164.7314a6.812,6.812,0,1,1,0-13.624,6.3583,6.3583,0,0,1,6.6826,6.5,7.5227,7.5227,0,0,1-.0781,1.04H89.5039a4.3513,4.3513,0,0,0,4.5762,4.03,4.814,4.814,0,0,0,4.3945-2.2881l1.7676,1.0655A6.863,6.863,0,0,1,94.0283,164.7314Zm-4.4717-7.93h8.7881a4.17,4.17,0,0,0-4.3164-3.7188A4.3351,4.3351,0,0,0,89.5566,156.8018Z"/><path d="M102.1924,164.4717V146.6611h2.2881v17.8106Z"/><rect class="cls-1" x="1" y="1" width="143" height="171" rx="12.5313"/><path class="cls-2" d="M41.562,50.7753l5.0405,2.3781a18.2781,18.2781,0,0,1-4.1612,4.1506A5.5323,5.5323,0,0,1,41.562,50.7753Z"/><path class="cls-3" d="M21.9724,103.6962c-1.8206-3.1458-1.6378-6.3166.6673-8.6494C28.22,89.4,33.7991,83.7492,39.4932,78.218c2.5449-2.4722,5.9639-3.1722,9.3409-3.7949-6.4025,6.4931-12.7043,13.09-19.2523,19.4331A45.7272,45.7272,0,0,0,21.9724,103.6962Z"/><path class="cls-4" d="M9.8194,104.8441a13.0646,13.0646,0,0,1,1.5788-16.2067q15.5183-15.67,31.0431-31.3334a18.2781,18.2781,0,0,0,4.1612-4.1506L41.562,50.7753a13.2644,13.2644,0,0,1,2.1935-15.9441c4.1033-4.12,8.296-8.1543,12.3038-12.3649a9.9955,9.9955,0,0,1,7.9122-3.2536c7.4746.1111,14.9545-.0785,22.4268.0938,2.8618.066,5.1248-.6342,6.8107-2.936,3.6081-4.926,7.8719-5.7185,13.64-3.44,8.5805,3.39,17.4718,6.0012,26.2615,8.8493,3.2563,1.0552,4.9858,3.01,4.7493,6.5245-.2923,4.3462.723,8.783-.9087,13.0363-4.1832,4.2024-8.1917,8.6-12.6073,12.5427-3.2671,2.9168-5.1516,6.0539-4.3762,10.4866l-.828,1.9406q-21.4756,21.5043-42.9528,43.007c-4.3654,4.3687-7.6849,4.7389-12.7848,1.0233-1.3724-1-1.9394-.7453-2.8379.27-.7839.886-1.6613,1.69-2.5014,2.5254a10.071,10.071,0,0,1-15.3437-1.0806c-1.1591-1.5954-1.6043-1.0957-2.5288-.1295-1.5619,1.6324-3.2063,3.743-5.6295,3.1782-4.5466-1.06-9.9422-.8277-12.2231-6.3248a1.1645,1.1645,0,0,0-1.3273-.8084C16.9643,108.0669,13.4951,106.084,9.8194,104.8441Zm39.0147-30.421c1.1748-.2829,1.9031-2.7257,3.1078-1.3986,1.1621,1.28-1.0869,1.9477-1.7055,2.96a6.2173,6.2173,0,0,1-.9924,1.0175Q38.2859,87.9665,27.3382,98.9411c-1.6566,1.6684-2.4222,8.6232-1.2165,10.0625,1.2387,1.4784,8.4031,2.8,10.1556,1.8739.786-.7042,1.5194-1.48,2.3668-2.1008,4.7518-3.4793,6.217-9.5006,10.7046-13.3474,5.442-4.6649,10.1824-10.1484,15.2263-15.2777,1.3756-.2727,1.9524-3.322,3.5025-1.6754,1.0684,1.1349-1.2751,2.0835-2.0339,3.1479A15.14,15.14,0,0,1,64.31,83.3928q-8.3978,8.3922-16.7913,16.7884c-2.0292,2.0366-3.5129,7.6566-2.0834,9.7948,1.6774,2.509,4.6682,2.742,7.5024,2.8337,1.4744-.1627,2.1151-1.4458,2.9974-2.3369,7.3557-7.4284,12.6265-16.72,20.8638-23.37a9.07,9.07,0,0,0,1.1294-1.3352c1.5354-.67,2.056-2.8352,4.0722-2.9692.5491,1.7352-.8686,2.2324-1.6022,2.98-4.4878,4.5736-9.085,9.04-13.573,13.6134-1.9842,2.0219-3.3395,4.7048-2.1886,7.3133.9723,2.2038,3.6091,2.7926,6.1231,2.55,1.5027-.1062,2.128-1.4165,3.0139-2.2988,13.2086-13.1553,26.3257-26.4034,39.6169-39.4745,2.634-2.59,3.9138-5.2337,3.0439-8.83.6853-3.0686-.407-6.26.6443-9.3035,3.182.6407.4658,3.4719,1.8467,4.8538,4.9173-4.8022,9.8617-9.5992,14.7478-14.4549a2.9872,2.9872,0,0,0,.7551-1.9227c.0242-3.7475.5092-7.51-.2477-11.24-.5575-1.7-2.2439-1.59-3.4871-2.0164-8.3911-2.88-16.8967-5.4458-25.2009-8.5522-3.9858-1.4909-6.9337-1.2837-9.49,2.2863-2.414,3.3716-5.7538,4.4034-9.9135,4.24-7.3415-.2892-14.7028-.06-22.0556-.0977a5.9646,5.9646,0,0,0-4.59,1.4583c-4.8648,4.8612-9.808,9.6486-14.5405,14.6358-2.5025,2.6372-2.0912,6.4524-.9072,9.05,1.058,2.3214,4.499,3.1563,7.5408,2.5685L64.3845,37.2951c1.2774-.4226,1.6083-2.3789,3.3063-2.1385.6961,1.1153-.2364,1.583-.7639,2.118q-8.7138,8.8383-17.3159,17.784C37.7509,67.3451,25.5165,79.27,13.45,91.3574c-2.0568,2.06-3.0388,8.9281-1.572,10.562,1.3134,1.4629,8.4807,2.7245,10.0945,1.7768a45.7272,45.7272,0,0,1,7.6094-9.84C36.13,87.5132,42.4316,80.9162,48.8341,74.4231Z"/><path class="cls-2" d="M9.8194,104.8441c3.6757,1.24,7.1449,3.2228,11.1912,3.1278a1.1645,1.1645,0,0,1,1.3273.8084c2.2809,5.4971,7.6765,5.2649,12.2231,6.3248,2.4232.5648,4.0676-1.5458,5.63-3.1782.9245-.9662,1.37-1.4659,2.5288.1295A10.071,10.071,0,0,0,58.063,113.137c.84-.8359,1.7175-1.6394,2.5014-2.5254.8985-1.0157,1.4655-1.27,2.8379-.27,5.1,3.7156,8.4194,3.3454,12.7848-1.0233Q97.6689,87.82,119.14,66.3109c1.2429,5.4591-1.5986,9.3206-5.1208,12.8549Q95.9285,97.3182,77.7664,115.3991a36.7448,36.7448,0,0,1-4.9036,4.0879c-3.1644,2.2021-6.0874.4474-8.4037-1.4029-2.0421-1.6314-3.1672-1.4374-4.639.3345-.7549.9088-1.6615,1.6919-2.5029,2.5284-4.8021,4.7746-12.1551,3.214-14.7639-3.1374-.2248.04-.5629.0073-.6561.1426-4.2407,6.16-9.667,5.1226-15.3487,2.55-.3221-.1458-.8046-.2655-.907-.52-2.3163-5.76-8.3259-4.3981-12.547-6.4295C9.0532,111.6078,7.704,108.7011,9.8194,104.8441Z"/><path class="cls-2" d="M119.9679,64.37c-.7754-4.4327,1.1091-7.57,4.3762-10.4866,4.4156-3.9422,8.4241-8.34,12.6073-12.5427.8127,4.6831-.5721,8.3857-4.3085,11.5252-3.4066,2.8625-6.3621,6.2608-9.5317,9.4074C122.2055,63.1727,121.4146,64.2709,119.9679,64.37Z"/><path class="cls-5" d="M51.5369,50.1568c-3.0418.5878-6.4828-.2471-7.5408-2.5685-1.184-2.598-1.5953-6.4132.9072-9.05,4.7325-4.9872,9.6757-9.7746,14.5405-14.6358a5.9646,5.9646,0,0,1,4.59-1.4583c7.3528.0373,14.7141-.1915,22.0556.0977,4.16.1639,7.4995-.8679,9.9135-4.2395,2.556-3.57,5.5039-3.7772,9.49-2.2863,8.3042,3.1064,16.81,5.6718,25.2009,8.5522,1.2432.4268,2.93.3159,3.4871,2.0164-1.444.1154-2.2375,1.2125-3.1459,2.1144-3.01,2.9883-5.8235,6.2046-9.0476,8.9382-3.723,3.1567-5.6507,6.8082-4.9084,11.7114-1.0513,3.0432.041,6.2349-.6443,9.3035-2.8755.4485-3.5929,3.2447-5.3024,4.9427C98.8752,75.7687,86.7441,88.07,74.4216,100.1769c-2.6689,2.6221-4.1543,5.358-3.6619,9.0782-2.514.243-5.1508-.3458-6.1231-2.55-1.1509-2.6085.2044-5.2914,2.1886-7.3133,4.488-4.5735,9.0852-9.04,13.573-13.6134.7336-.7476,2.1513-1.2448,1.6022-2.98-2.0162.134-2.5368,2.2993-4.0722,2.9692A10.2849,10.2849,0,0,0,68.82,89.39,122.0442,122.0442,0,0,1,58.307,99.8709c-4.09,3.5045-6.2956,7.4954-5.3694,12.9388-2.8342-.0917-5.825-.3247-7.5024-2.8337-1.43-2.1382.0542-7.7582,2.0834-9.7948q8.38-8.41,16.7913-16.7884a15.14,15.14,0,0,0,1.7337-1.7687c.7588-1.0644,3.1023-2.013,2.0339-3.1479-1.55-1.6466-2.1269,1.4027-3.5025,1.6754-3.22.3076-6.4424.9248-8.8126,3.219q-9.5633,9.257-18.8141,18.8337a6.4175,6.4175,0,0,0-.671,8.6732c-1.7525.9265-8.9169-.3955-10.1556-1.8739-1.2057-1.4393-.44-8.3941,1.2165-10.0625q10.9221-11,21.9058-21.9389a6.2173,6.2173,0,0,0,.9924-1.0175c.6186-1.0125,2.8676-1.68,1.7055-2.96-1.2047-1.3271-1.933,1.1157-3.1078,1.3986-3.377.6227-6.796,1.3227-9.3409,3.7949C33.7991,83.7492,28.22,89.4,22.64,95.0468c-2.3051,2.3328-2.4879,5.5036-.6673,8.6494-1.6138.9477-8.7811-.3139-10.0945-1.7768-1.4668-1.6339-.4848-8.5016,1.572-10.562C25.5165,79.27,37.7509,67.3451,49.611,55.0586q8.62-8.93,17.3159-17.784c.5275-.535,1.46-1.0027.7639-2.118-1.698-.24-2.0289,1.7159-3.3063,2.1385-2.7226-.4563-5.0751.7759-7.5182,1.6263C51.1611,40.9072,49.6271,44.1185,51.5369,50.1568Z"/><path class="cls-6" d="M70.76,109.2551c-.4924-3.72.993-6.4561,3.6619-9.0782C86.7441,88.07,98.8752,75.7687,111.132,63.5945c1.7095-1.698,2.4269-4.4942,5.3024-4.9427.87,3.5963-.41,6.24-3.0439,8.83C100.0993,80.5529,86.9822,93.801,73.7736,106.9563,72.8877,107.8386,72.2624,109.1489,70.76,109.2551Z"/><path class="cls-7" d="M117.0787,49.3483c-.7423-4.9032,1.1854-8.5547,4.9084-11.7114,3.2241-2.7336,6.0378-5.95,9.0476-8.9382.9084-.9019,1.7019-1.999,3.1459-2.1144.7569,3.73.2719,7.4927.2477,11.24a2.9872,2.9872,0,0,1-.7551,1.9227c-4.8861,4.8557-9.8305,9.6527-14.7478,14.4549C117.5445,52.82,120.2607,49.989,117.0787,49.3483Z"/><path class="cls-8" d="M36.2773,110.8775a6.4175,6.4175,0,0,1,.671-8.6732q9.2232-9.5949,18.8141-18.8337c2.37-2.2942,5.5924-2.9114,8.8126-3.219-5.0439,5.1293-9.7843,10.6128-15.2263,15.2777-4.4876,3.8468-5.9528,9.8681-10.7046,13.3474C37.7967,109.3971,37.0633,110.1733,36.2773,110.8775Z"/><path class="cls-9" d="M52.9376,112.81c-.9262-5.4434,1.2794-9.4343,5.3694-12.9388A122.0442,122.0442,0,0,0,68.82,89.39a10.2849,10.2849,0,0,1,9.108-3.6216,9.07,9.07,0,0,1-1.1294,1.3352c-8.2373,6.6494-13.5081,15.9412-20.8638,23.37C55.0527,111.3639,54.412,112.647,52.9376,112.81Z"/><path class="cls-10" d="M51.5369,50.1568c-1.91-6.0383-.3758-9.25,5.3294-11.2354,2.4431-.85,4.7956-2.0826,7.5182-1.6263Z"/></svg>