<svg id="Layer_1" data-name="Layer 1" xmlns="http://www.w3.org/2000/svg" xmlns:xlink="http://www.w3.org/1999/xlink" width="145" height="173" viewBox="0 0 145 173"><defs><style>.cls-1{fill:none;stroke-miterlimit:10;stroke-width:2px;stroke:url(#linear-gradient);}.cls-2{fill:#363331;}.cls-3{opacity:0.46;}.cls-4{opacity:0.49;fill:url(#linear-gradient-2);}.cls-5{opacity:0.74;fill:url(#linear-gradient-3);}</style><linearGradient id="linear-gradient" y1="86.5" x2="145" y2="86.5" gradientUnits="userSpaceOnUse"><stop offset="0" stop-color="#a823cc"/><stop offset="1" stop-color="#f35ba6"/></linearGradient><linearGradient id="linear-gradient-2" x1="23.2694" y1="64.996" x2="113.5587" y2="64.996" xlink:href="#linear-gradient"/><linearGradient id="linear-gradient-3" x1="74.4352" y1="70.042" x2="123.8519" y2="70.042" xlink:href="#linear-gradient"/></defs><title>piedra back</title><rect class="cls-1" x="1" y="1" width="143" height="171" rx="12.5313"/><path class="cls-2" d="M33.1992,92.4434a36.8259,36.8259,0,0,1-.4761-4.2282c-.0062-2.2755-.0442-4.2251-2.2314-5.9064-2.2-1.691-1.3372-4.6213-1.3706-7.0645A8.7535,8.7535,0,0,0,27.1238,69.25c-1.8823-2.3532-3.4387-4.83-5.7936-6.9258-2.483-2.21-1.5246-10.921,1.1169-13.65,5.034-5.2006,10.2077-10.2661,15.33-15.3815a8.5718,8.5718,0,0,1,6.5135-2.27c8.6631.042,17.3271-.0393,25.9894.0553a6.6785,6.6785,0,0,0,5.3372-2.2053c3.1035-3.2694,6.3683-6.3853,9.5318-9.5988A7.8864,7.8864,0,0,1,91.1976,16.76c.1185.0028.2373-.0046.356-.003,14.8678.1991,10.7142-1.6723,21.0273,8.4569,3.81,3.7419,7.5183,7.5877,11.3511,11.3057A9.571,9.571,0,0,1,127,43.8253a25.1251,25.1251,0,0,0,.0163,3.2021c.6521,5.5228-.5584,10.3506-5.0372,14.0177-3.4732,3.3832-6.888,6.83-10.4443,10.1231a6.8853,6.8853,0,0,0-2.5625,5.9,7.978,7.978,0,0,1-2.5255,6.4041q-14.2209,14.185-28.4038,28.4079a6.1852,6.1852,0,0,1-6.8262,1.6427q-15.4894-5.1766-30.9825-10.3425c-2.3972-.7984-4.0295-2.4922-3.89-4.9329C36.5042,95.4587,35.1668,93.8763,33.1992,92.4434Zm80.36-61.2521c-2.4657-2.5549-4.9093-5.1315-7.4025-7.6593C102.9,20.23,93.3471,18.1,89.3926,20.5176c-4.7782,2.9208-8.0572,7.6242-12.7846,11.9342,1.8533,0,2.5743-.072,3.2742.0185.8482.11,2.3154-.4888,2.34.803.03,1.583-1.559.8911-2.4848,1.0375a11.51,11.51,0,0,1-1.7783.0161q-16.3852-.0006-32.77-.0018c-1.6621,0-3.4227-.1934-4.7238,1.0922-5.32,5.2564-10.7389,10.425-15.819,15.9063-2.703,2.9166-1.2271,9.2146,2.7121,10.3651C24.5567,53.11,31.115,49.3759,35.6858,44.5742c.1635-.1717.3382-.3329.4993-.5069a4.58,4.58,0,0,1,5.1972-1.2527q8.93,2.988,17.85,6.0026c.747.2519,1.9386.3432,1.6238,1.4236-.4268,1.4647-1.5252.5422-2.3384.2746-5.5142-1.8146-11.0193-3.6567-16.531-5.4791-1.4724-.4869-2.9309-1.007-4.3305.2774-5.17,4.7449-10.7433,9.2722-8.787,17.58a3.0325,3.0325,0,0,1,.0034,1.0654c-.3143,2.378.6348,3.61,3.0191,4.3662C41.1509,71.26,50.34,74.413,59.5574,77.4794c2.36.7852,4.7361,1.5255,7.0856,2.3418.6245.217,1.569.4379,1.3476,1.34-.2989,1.2183-1.2911.6414-2.0273.4785a20.7056,20.7056,0,0,1-2.0329-.6461q-13.1485-4.3757-26.2956-8.7561c-5.2035-1.7383-4.9736-1.7369-5.2806,3.803-.1866,3.3677.959,4.9087,4.1627,5.76,4.4569,1.1848,8.7942,2.8232,13.1744,4.2922q8.0853,2.7115,16.1516,5.4787c.9008.3107,2.6405.2652,2.051,1.74-.5439,1.3612-1.8287.1416-2.78-.0576a9.338,9.338,0,0,1-1.0229-.3q-12.813-4.26-25.6277-8.5145c-.7849-.26-1.7-1.1807-2.38.1-1.1064,2.0839.356,6.4629,2.5581,7.4169,6.8877,2.9837,14.1915,4.79,21.2094,7.4,2.7243,1.0132,5.8965,1.2243,8.4815,3.66a5.8608,5.8608,0,0,1-4.0125-.4054c-7.4371-2.4876-14.9008-4.8956-22.3386-7.3813-1.0084-.3371-2.2275-1.1386-2.8541-.0688a3.1111,3.1111,0,0,0,.5925,3.5873,4.8728,4.8728,0,0,0,2.3064,1.5362q14.8391,4.93,29.6681,9.89c1.7261.576,3.2807.5782,4.2769-1.2818,7.5044-7.4108,14.7056-15.1669,22.6163-22.1151,5.5841-4.9047,8.3117-10.2357,7.2292-17.6238-.1947-1.3287-1.1466-4.0131.9251-4.1283,1.5613-.0868.56,2.5925.9669,3.9773.0539.1835.2644.3208.6217.7317,2.7537-2.7752,5.186-5.9369,8.2784-8.1944,6.3327-4.6229,7.9207-10.7256,7.0042-18.0348a6.394,6.394,0,0,0-1.6409-4.1644Q117.7642,35.2672,113.5587,31.1913Z"/><path class="cls-3" d="M33.1992,92.4434c1.9676,1.4329,3.305,3.0153,3.1455,5.8044-.14,2.4407,1.4926,4.1345,3.89,4.9329q15.4947,5.1606,30.9825,10.3425a6.1852,6.1852,0,0,0,6.8262-1.6427Q92.23,97.6613,106.447,83.4726a7.978,7.978,0,0,0,2.5255-6.4041,6.8853,6.8853,0,0,1,2.5625-5.9c3.5563-3.2936,6.9711-6.74,10.4443-10.1231,4.41.9712,6.132,5.4637,3.7429,10.0243a19.8053,19.8053,0,0,1-3.6561,4.7889q-19.6741,19.61-39.3143,39.2535c-1.9259,1.9159-4.0487,3.643-6.1577,5.3625a4.4782,4.4782,0,0,1-4.6487.7009c-12.7675-4.39-25.5811-8.6464-38.358-13.01-2.801-.9565-6.21-1.1856-6.2412-5.5645C27.306,96.9733,28.5688,94.499,33.1992,92.4434Z"/><path class="cls-4" d="M75.9708,108.8927c-.9962,1.86-2.5508,1.8578-4.2769,1.2818q-14.8328-4.9488-29.6681-9.89a4.8728,4.8728,0,0,1-2.3064-1.5362,3.1111,3.1111,0,0,1-.5925-3.5873c.6266-1.07,1.8457-.2683,2.8541.0688,7.4378,2.4857,14.9015,4.8937,22.3386,7.3813a5.8608,5.8608,0,0,0,4.0125.4054c-2.585-2.4362-5.7572-2.6473-8.4815-3.66-7.0179-2.61-14.3217-4.416-21.2094-7.4-2.2021-.954-3.6645-5.333-2.5581-7.4169.68-1.2805,1.595-.3594,2.38-.1q12.8195,4.24,25.6277,8.5145a9.338,9.338,0,0,0,1.0229.3c.9516.1992,2.2364,1.4188,2.78.0576.59-1.475-1.15-1.43-2.051-1.74q-8.0616-2.78-16.1516-5.4787c-4.38-1.469-8.7175-3.1074-13.1744-4.2922-3.2037-.8517-4.3493-2.3927-4.1627-5.76.307-5.54.0771-5.5413,5.2806-3.803Q50.7784,76.6283,63.93,80.9937a20.7056,20.7056,0,0,0,2.0329.6461c.7362.1629,1.7284.74,2.0273-.4785.2214-.9022-.7231-1.1231-1.3476-1.34-2.35-.8163-4.7252-1.5566-7.0856-2.3418C50.34,74.413,41.1509,71.26,31.8922,68.3252c-2.3843-.7558-3.3334-1.9882-3.0191-4.3662a3.0325,3.0325,0,0,0-.0034-1.0654c-1.9563-8.3077,3.6167-12.835,8.787-17.58,1.4-1.2844,2.8581-.7643,4.3305-.2774,5.5117,1.8224,11.0168,3.6645,16.531,5.4791.8132.2676,1.9116,1.19,2.3384-.2746.3148-1.08-.8768-1.1717-1.6238-1.4236q-8.9229-3.0084-17.85-6.0026a4.58,4.58,0,0,0-5.1972,1.2527c-.1611.174-.3358.3352-.4993.5069C31.115,49.3759,24.5567,53.11,27.3575,61.6887c-3.9392-1.15-5.4151-7.4485-2.7121-10.3651,5.08-5.4813,10.4992-10.65,15.819-15.9063,1.3011-1.2856,3.0617-1.0924,4.7238-1.0922q16.3852.0029,32.77.0018a11.51,11.51,0,0,0,1.7783-.0161c.9258-.1464,2.5144.5455,2.4848-1.0375-.0242-1.2918-1.4914-.6933-2.34-.803-.7-.09-1.4209-.0185-3.2742-.0185,4.7274-4.31,8.0064-9.0134,12.7846-11.9342C93.3471,18.1,102.9,20.23,106.1562,23.532c2.4932,2.5278,4.9368,5.1044,7.4025,7.6593a21.9458,21.9458,0,0,0-3.1789,2.2206Q93.4816,50.2128,76.6525,67.0835a7.1781,7.1781,0,0,0-2.2172,5.4048c.0422,10.9067.02,21.8137.0174,32.7205C74.4522,106.65,74.3911,108.1069,75.9708,108.8927ZM68.17,50.9383c0-2.7857.052-4.6839-.0241-6.5769-.0332-.8253.4825-2.2318-.977-2.17-1.0114.0426-.7969,1.2729-.801,2.0709-.0168,3.318.097,6.64-.0325,9.9534A8.3936,8.3936,0,0,1,55.6094,61.853q-6.9111-2.2587-13.81-4.5549c-.7719-.2569-1.7126-.8712-2.078.2744-.34,1.0657.7273,1.2328,1.5041,1.4924,5.3826,1.7986,10.7528,3.6346,16.143,5.41,2.0965.6906,3.7767.047,5.5117-1.3947C67.0328,59.63,69.3872,55.6055,68.17,50.9383Z"/><path class="cls-5" d="M75.9708,108.8927c-1.58-.7858-1.5186-2.2428-1.5181-3.6839.0031-10.9068.0248-21.8138-.0174-32.72a7.1781,7.1781,0,0,1,2.2172-5.4048Q93.5236,50.255,110.38,33.4119a21.9458,21.9458,0,0,1,3.1789-2.2206q4.2063,4.0749,8.413,8.15a6.394,6.394,0,0,1,1.6409,4.1644c.9165,7.3092-.6715,13.4119-7.0042,18.0348-3.0924,2.2575-5.5247,5.4192-8.2784,8.1944-.3573-.4109-.5678-.5482-.6217-.7317-.407-1.3848.5944-4.0641-.9669-3.9773-2.0717.1152-1.12,2.8-.9251,4.1283,1.0825,7.3881-1.6451,12.7191-7.2292,17.6238C90.6764,93.7258,83.4752,101.4819,75.9708,108.8927Z"/><path d="M40.7939,158.8047v5.668H38.2715V146.6621h6.6562c3.9,0,6.4219,2.6514,6.4219,6.0576a6.0958,6.0958,0,0,1-6.4219,6.085Zm0-9.8291V156.49h3.9776a3.7666,3.7666,0,1,0,.0527-7.5146Z"/><path d="M53.17,148.95v-2.2881H55.458V148.95Zm0,15.5225V151.3164H55.458v13.1563Z"/><path d="M63.7773,164.7324a6.812,6.812,0,1,1,0-13.624,6.3584,6.3584,0,0,1,6.6827,6.5,7.5109,7.5109,0,0,1-.0782,1.04H59.2529a4.3514,4.3514,0,0,0,4.5762,4.03,4.8159,4.8159,0,0,0,4.3945-2.2881l1.7686,1.0655A6.8658,6.8658,0,0,1,63.7773,164.7324Zm-4.4716-7.9306h8.7881a4.17,4.17,0,0,0-4.3165-3.7178A4.3348,4.3348,0,0,0,59.3057,156.8018Z"/><path d="M71.6289,157.92a6.72,6.72,0,0,1,6.6826-6.7861,6.12,6.12,0,0,1,4.7324,1.9766v-6.4483h2.2618v17.8106H83.0439v-1.794a6.0306,6.0306,0,0,1-4.7324,2.002A6.6977,6.6977,0,0,1,71.6289,157.92Zm2.2363,0a4.6154,4.6154,0,1,0,9.23,0,4.6012,4.6012,0,0,0-4.6543-4.6543A4.5523,4.5523,0,0,0,73.8652,157.92Z"/><path d="M93.5469,153.4736c-2.5742,0-4.1338,1.7168-4.1338,4.3428v6.6563H87.125V151.3164h2.2617V153.5a4.7357,4.7357,0,0,1,4.16-2.3662Z"/><path d="M105.1689,162.6787a5.906,5.906,0,0,1-4.7324,2.002,6.7741,6.7741,0,0,1,0-13.5469,6.2164,6.2164,0,0,1,4.7324,1.95v-1.7676h2.2618v13.1563h-2.2618ZM95.99,157.92a4.6154,4.6154,0,1,0,9.23,0,4.6012,4.6012,0,0,0-4.6543-4.6543A4.5523,4.5523,0,0,0,95.99,157.92Z"/><path class="cls-2" d="M68.17,50.9383c0-2.7857.052-4.6839-.0241-6.5769-.0332-.8253.4825-2.2318-.977-2.17-1.0114.0426-.7969,1.2729-.801,2.0709-.0168,3.318.097,6.64-.0325,9.9534A8.3936,8.3936,0,0,1,55.6094,61.853q-6.9111-2.2587-13.81-4.5549c-.7719-.2569-1.7126-.8712-2.078.2744-.34,1.0657.7273,1.2328,1.5041,1.4924,5.3826,1.7986,10.7528,3.6346,16.143,5.41,2.0965.6906,3.7767.047,5.5117-1.3947C67.0328,59.63,69.3872,55.6055,68.17,50.9383Z"/></svg>