<svg id="Layer_1" data-name="Layer 1" xmlns="http://www.w3.org/2000/svg" xmlns:xlink="http://www.w3.org/1999/xlink" width="145" height="173" viewBox="0 0 145 173"><defs><style>.cls-1{fill:none;stroke-miterlimit:10;stroke-width:2px;stroke:url(#linear-gradient);}.cls-2{opacity:0.46;}.cls-3{fill:#363331;}.cls-4{opacity:0.49;fill:url(#linear-gradient-2);}.cls-5,.cls-6,.cls-7{opacity:0.74;}.cls-5{fill:url(#linear-gradient-3);}.cls-6{fill:url(#linear-gradient-4);}.cls-7{fill:url(#linear-gradient-5);}</style><linearGradient id="linear-gradient" y1="86.5" x2="145" y2="86.5" gradientUnits="userSpaceOnUse"><stop offset="0" stop-color="#a823cc"/><stop offset="1" stop-color="#f35ba6"/></linearGradient><linearGradient id="linear-gradient-2" x1="12.2301" y1="68.7078" x2="122.0306" y2="68.7078" xlink:href="#linear-gradient"/><linearGradient id="linear-gradient-3" x1="39.6279" y1="74.4198" x2="132.3387" y2="74.4198" xlink:href="#linear-gradient"/><linearGradient id="linear-gradient-4" x1="61.7874" y1="97.243" x2="82.4552" y2="97.243" xlink:href="#linear-gradient"/><linearGradient id="linear-gradient-5" x1="43.5165" y1="81.1267" x2="63.428" y2="81.1267" xlink:href="#linear-gradient"/></defs><title>tijera back</title><rect class="cls-1" x="1" y="1" width="143" height="171" rx="12.5313"/><path class="cls-2" d="M41,77.6c2.4423,3.6117.8084,6.0972-2.1762,8.3485a54.8346,54.8346,0,0,0-4.1277,3.7934C33.2151,84.99,35.6123,80.3727,41,77.6Z"/><path class="cls-3" d="M26.7211,116.11c-1.3765-7.4221,3.448-11.823,7.975-16.3688a54.8346,54.8346,0,0,1,4.1277-3.7934C41.8084,93.6967,43.4423,91.2112,41,87.6V81.2444c-4.95,1.6413-9.8042,3.0992-14.5452,4.8621-5.6649,2.1064-10.7882.0142-15.1626-2.7775-4.3861-2.7993-1.95-8.1033-2.1278-12.3008-.12-2.8359,2.2307-4.1125,4.8138-4.9474,8.1167-2.6235,16.162-5.47,24.2946-8.0411,2.1526-.6806,3.2637-1.5726,2.9257-3.93-.6145-4.287,1.246-7.4636,4.342-10.3215,4.1832-3.8613,8.1236-7.9885,12.1138-12.055a8.7664,8.7664,0,0,1,6.67-2.7913c4.7473.0509,9.4976-.0725,14.2425.0457a6.9186,6.9186,0,0,0,5.672-2.2978c3-3.2041,6.2074-6.2129,9.2784-9.352a8.1568,8.1568,0,0,1,6.3587-2.6533c.1185.004.2374-.0034.356-.0021,14.8043.1608,10.68-1.4919,20.7273,8.3387,3.7329,3.6521,7.3214,7.4544,11.1126,11.0436a9.8734,9.8734,0,0,1,3.3585,8.23,59.0238,59.0238,0,0,0-.0014,6.7628,9.9076,9.9076,0,0,1-2.3427,7.2376c-4.3072,4.2379-8.5581,8.5354-12.9484,12.6855-1.8479,1.7467-2.9543,3.5768-2.6875,6.2126a7.6757,7.6757,0,0,1-2.64,6.3428Q100.8178,95.49,86.8756,109.4937a6.7761,6.7761,0,0,1-7.7629,1.78c-5.0275-1.7789-10.1632-3.2611-15.1489-5.1445-2.5518-.9639-4.2558-.7547-6.2094,1.3561-4.43,4.7871-9.2,9.259-13.781,13.9087-2.2278,2.2612-4.6871,3.0658-7.7289,1.8243a39.7667,39.7667,0,0,0-4.3884-1.4485C28.933,120.9579,27.1285,119.18,26.7211,116.11Zm55.73-7.8254a1.7885,1.7885,0,0,0,1.5472-.6955q14.3475-14.3329,28.7-28.6615a5.8993,5.8993,0,0,0,1.4918-4.5807q-.0363-4.9809.0125-9.9623c.0059-.6786-.0456-1.5954.9175-1.6249.9937-.0305.8447.8954.9657,1.5641.1918,1.06-.4793,2.2833.7643,3.5881,2.9059-3.0174,5.3577-6.3767,8.5568-8.7126,6.2983-4.5989,7.5321-10.7009,6.7023-17.8062a6.3252,6.3252,0,0,0-1.671-4.1681c-2.814-2.709-5.606-5.4407-8.407-8.1632-2.73-2.8055-5.4386-5.6315-8.1948-8.4107-2.7458-2.7687-13.7565-4.3832-16.6466-1.8835-3.9614,3.4262-7.3636,7.4989-11.3034,11.605a8.7253,8.7253,0,0,1,1.6013.0147c1.1405.261,3.2343-.7568,3.21.956-.0232,1.6061-2.121.8581-3.2758.87-7.2438.0754-14.49.1075-21.7329-.0017a7.8367,7.8367,0,0,0-6.32,2.52C55.3621,38.95,51.15,42.972,47.0683,47.1193a19.4124,19.4124,0,0,0-2.4029,3.0572,6.4426,6.4426,0,0,0-.29,6.381c.7442,1.3756,3.0041-.1551,4.5086-.6182,3.7343-1.1494,7.3922-2.5459,11.1222-3.7105,4.2466-1.3258,9.2078-1.8922,7.6065-8.457a1.03,1.03,0,0,1,.9371-1.279c.6522-.0619.9028.4762,1.0666,1.1293,1.2062,4.8086-.284,7.515-5.1715,9.153Q41.2469,60.55,18.0382,68.2943c-6.5315,2.1784-5.5558,1.023-5.5757,7.7632-.0046,1.5837-.88,3.91.7964,4.6272,3.6125,1.5451,7.23,3.8689,11.5072,2.4255,7.0568-2.3815,14.0882-4.8387,21.1512-7.2017C50.96,74.2213,56.0367,72.634,61.1,71.0071c1.45-.466,2.9391-.5356,3.8674.8377,1.0234,1.514-.0944,2.6668-1.0787,3.7279-.565.6091-1.17,1.1812-1.7578,1.769q-14.84,14.839-29.6763,29.6824c-1.8106,1.8138-2.9722,8.5653-1.8259,10.3022.8374,1.2689,7.834,3.0179,9.8068,2.4514.8866-.7588,1.83-1.4608,2.6511-2.2849C53.2019,107.34,63.2841,97.1538,73.4389,87.04c.6374-.6348,1.2167-2.82,2.7976-.8391-2.6319,2.7121-5.239,5.4489-7.9055,8.1266-1.5057,1.512-2.7856,2.64.7583,3.0923,1.9536.25,3.7642,1.4756,5.7081,2.0119.8085.2231,1.438.371,1.2256,1.2238-.2456.9867-1.1338.5753-1.7586.4359a24.2869,24.2869,0,0,1-2.3353-.7581c-1.9915-.6629-3.9528-1.4475-5.9835-1.9533-1.9943-.4966-2.9438,1.1984-3.9385,2.4379-.6171.769.192,1.3264.8764,1.5158C69.4565,104.1531,75.6543,107.2063,82.451,108.2848ZM63.428,73.28l-.4847-.8486q-6.8307,2.2491-13.662,4.4966c-4.4451,1.4555-7.04,6.8769-5.1291,11.0989.653,1.4429,2.1619,2.6873,3.5175.94,2.49-3.21,7.1242-4.6881,7.6788-9.4579.0627-.5389.5581-.6181,1.0579-.6805C59.9824,78.3819,61.046,75.0865,63.428,73.28Z"/><path class="cls-2" d="M26.7211,116.11c.4074,3.07,2.2119,4.8477,5.135,5.66a39.7667,39.7667,0,0,1,4.3884,1.4485c3.0418,1.2415,5.5011.4369,7.7289-1.8243,4.5811-4.65,9.3505-9.1216,13.781-13.9087,1.9536-2.1108,3.6576-2.32,6.2094-1.3561,4.9857,1.8834,10.1214,3.3656,15.1489,5.1445a6.7761,6.7761,0,0,0,7.7629-1.78q13.9179-14.028,27.9345-27.9581a7.6757,7.6757,0,0,0,2.64-6.3428c-.2668-2.6358.84-4.4659,2.6875-6.2126,4.39-4.15,8.6412-8.4476,12.9484-12.6855,5.1879,6.4832,4.9675,10.2967-.9458,16.21C117.5517,87.0943,102.8978,101.62,88.4216,116.32c-3.0765,3.1242-6.2165,4.3782-10.1133,2.2989-4.8051-2.564-8.1153-1.16-11.61,2.7479-5.5246,6.1773-11.643,11.824-17.5171,17.6882a10.77,10.77,0,0,1-15.6423-.6068,8.9793,8.9793,0,0,0-4.9924-3.036c-5.6241-1.5189-6.6182-2.9114-6.7165-8.6491C21.7551,122.381,21.6241,118.0732,26.7211,116.11Z"/><path class="cls-4" d="M40.4352,119.7777c-1.9728.5665-8.9694-1.1825-9.8068-2.4514-1.1463-1.7369.0153-8.4884,1.8259-10.3022q14.8263-14.853,29.6763-29.6824c.5879-.5878,1.1928-1.16,1.7578-1.769.9843-1.0611,2.1021-2.2139,1.0787-3.7279-.9283-1.3733-2.4172-1.3037-3.8674-.8377-5.063,1.6269-10.1394,3.2142-15.1824,4.9014-7.063,2.363-14.0944,4.82-21.1512,7.2017-4.2772,1.4434-7.8947-.88-11.5072-2.4255-1.6762-.7169-.801-3.0435-.7964-4.6272.02-6.74-.9558-5.5848,5.5757-7.7632q23.21-7.7409,46.4071-15.5192c4.8875-1.638,6.3777-4.3444,5.1715-9.153-.1638-.6531-.4144-1.1912-1.0666-1.1293a1.03,1.03,0,0,0-.9371,1.279c1.6013,6.5648-3.36,7.1312-7.6065,8.457-3.73,1.1646-7.3879,2.5611-11.1222,3.7105-1.5045.4631-3.7644,1.9938-4.5086.6182a6.4426,6.4426,0,0,1,.29-6.381,19.4124,19.4124,0,0,1,2.4029-3.0572C51.15,42.972,55.3621,38.95,59.3677,34.7317a7.8367,7.8367,0,0,1,6.32-2.52c7.243.1092,14.4891.0771,21.7329.0017,1.1548-.012,3.2526.736,3.2758-.87.0248-1.7128-2.069-.695-3.21-.956a8.7253,8.7253,0,0,0-1.6013-.0147c3.94-4.1061,7.342-8.1788,11.3034-11.605,2.89-2.5,13.9008-.8852,16.6466,1.8835,2.7562,2.7792,5.4651,5.6052,8.1948,8.4107-2.011.1355-3.05,1.7159-4.2864,2.9514C92.9607,56.7745,68.2815,81.6412,43.3327,106.2343,39.035,110.4708,39.0926,114.7742,40.4352,119.7777Z"/><path class="cls-5" d="M40.4352,119.7777c-1.3426-5.0035-1.4-9.3069,2.8975-13.5434,24.9488-24.5931,49.628-49.46,74.4115-74.2209,1.2367-1.2355,2.2754-2.8159,4.2864-2.9514,2.801,2.7225,5.593,5.4542,8.407,8.1632a6.3252,6.3252,0,0,1,1.671,4.1681c.83,7.1053-.404,13.2073-6.7023,17.8062-3.1991,2.3359-5.6509,5.6952-8.5568,8.7126-1.2436-1.3048-.5725-2.5281-.7643-3.5881-.121-.6687.028-1.5946-.9657-1.5641-.9631.0295-.9116.9463-.9175,1.6249q-.043,4.9809-.0125,9.9623a5.8993,5.8993,0,0,1-1.4918,4.5807Q98.3364,93.247,83.9982,107.5893a1.7885,1.7885,0,0,1-1.5472.6955q.0023-6.7173.0042-13.4347c0-6.3842,0-6.3842-6.2187-8.6488-1.5809-1.9805-2.16.2043-2.7976.8391-10.1548,10.1134-20.237,20.3-30.3526,30.4524C42.2653,118.3169,41.3218,119.0189,40.4352,119.7777Z"/><path class="cls-6" d="M76.2365,86.2013c6.2186,2.2646,6.2192,2.2646,6.2187,8.6488q-.0006,6.7175-.0042,13.4347c-6.7967-1.0785-12.9945-4.1317-19.5675-5.9507-.6844-.1894-1.4935-.7468-.8764-1.5158.9947-1.2395,1.9442-2.9345,3.9385-2.4379,2.0307.5058,3.992,1.29,5.9835,1.9533a24.2869,24.2869,0,0,0,2.3353.7581c.6248.1394,1.513.5508,1.7586-.4359.2124-.8528-.4171-1.0007-1.2256-1.2238-1.9439-.5363-3.7545-1.7624-5.7081-2.0119-3.5439-.4527-2.264-1.58-.7583-3.0923C70.9975,91.65,73.6046,88.9134,76.2365,86.2013Z"/><path class="cls-7" d="M63.428,73.28c-2.382,1.8064-3.4456,5.1018-7.0216,5.5485-.5.0624-.9952.1416-1.0579.6805-.5546,4.77-5.1888,6.2483-7.6788,9.4579-1.3556,1.7473-2.8645.5029-3.5175-.94-1.9106-4.222.684-9.6434,5.1291-11.0989q6.8345-2.238,13.662-4.4966Z"/><path d="M51.458,164.4727V148.9746H45.8418v-2.3125H59.5967v2.3125H53.9805v15.4981Z"/><path d="M60.7656,148.9492v-2.2871h2.2881v2.2871Zm0,15.5235V151.3164h2.2881v13.1563Z"/><path d="M67.1611,164.3164c0,3.4063-2.0537,4.6543-4.6279,4.6543V166.916c1.3,0,2.34-.6758,2.34-2.625V151.3164h2.2881ZM64.873,148.9492v-2.2871h2.2881v2.2871Z"/><path d="M75.4805,164.7324a6.8125,6.8125,0,1,1,0-13.625,6.3584,6.3584,0,0,1,6.6826,6.5,7.5257,7.5257,0,0,1-.0781,1.041H70.9561a4.3511,4.3511,0,0,0,4.5761,4.0293,4.8136,4.8136,0,0,0,4.3946-2.2871l1.7685,1.0645A6.8645,6.8645,0,0,1,75.4805,164.7324Zm-4.4717-7.93h8.7881a4.17,4.17,0,0,0-4.3164-3.7187A4.3342,4.3342,0,0,0,71.0088,156.8027Z"/><path d="M90.0664,153.4746c-2.5742,0-4.1338,1.7149-4.1338,4.3418v6.6563H83.6445V151.3164h2.2618V153.5a4.7354,4.7354,0,0,1,4.16-2.3672Z"/><path d="M101.6885,162.6777a5.9062,5.9062,0,0,1-4.7324,2.002,6.7741,6.7741,0,0,1,0-13.5469,6.2155,6.2155,0,0,1,4.7324,1.9512v-1.7676H103.95v13.1563h-2.2617ZM92.51,157.92a4.6154,4.6154,0,1,0,9.23,0,4.6012,4.6012,0,0,0-4.6543-4.6543A4.5522,4.5522,0,0,0,92.51,157.92Z"/></svg>