<svg id="Layer_1" data-name="Layer 1" xmlns="http://www.w3.org/2000/svg" width="145" height="93" viewBox="0 0 145 93"><title>vs</title><path d="M46.9657,73.8374,26.7,19.3985h8.3448l16.2913,45.22,16.2122-45.22h8.1866L55.4686,73.8374Z"/><path d="M76.1373,57.1478h7.8689c.7938,6.438,5.0057,11.0468,13.5892,11.0468,8.8208,0,12.7164-3.7359,12.7164-9.2982,0-6.3574-6.7558-7.55-14.1472-9.0595-8.8222-1.7486-18.5173-3.9747-18.5173-15.8958,0-9.2177,7.3914-15.3371,18.8351-15.3371,12.2389,0,19.4707,6.5163,20.1854,16.61H108.88C108.4826,30.2864,104.9868,25.12,96.642,25.12c-6.9945,0-11.2855,3.1-11.2855,8.4254,0,6.2769,5.96,7.7883,12.8745,9.06,9.14,1.7486,19.8691,3.3376,19.8691,15.8138,0,9.8562-7.7092,16.3718-20.345,16.3718C85.4356,74.7908,77.0907,68.3543,76.1373,57.1478Z"/></svg>